<svg id="eZNC0E8x3Ub1" xmlns="http://www.w3.org/2000/svg" xmlns:xlink="http://www.w3.org/1999/xlink" viewBox="0 0 1080 1080" shape-rendering="geometricPrecision" text-rendering="geometricPrecision"><g transform="translate(44.3 67.11)"><rect width="100" height="100" rx="0" ry="0" transform="translate(-50-50)" fill="#fff" fill-opacity="0"/></g><g transform="matrix(6.84 0 0 6.84 833.48 758.75)"><path id="eZNC0E8x3Ub17" d="M176.2,102.33c-.52,0-1,0-1.56-.07l.26-2.87c.871723.075012,1.748277.075012,2.62,0l.27,2.87c-.53.05-1.06.07-1.59.07Zm-4.66-.64c-1.012839-.289177-1.996974-.67078-2.94-1.14L169.89,98c.780666.392305,1.597907.707143,2.44.94Zm9.34,0l-.79-2.77c.842629-.25682,1.659494-.591601,2.44-1l1.29,2.58c-.941613.482938-1.925787.877947-2.94,1.18Zm-15-2.78c-.839558-.634295-1.619461-1.343906-2.33-2.12l2.13-2c.590401.648862,1.239864,1.241413,1.94,1.77Zm20.57,0l-1.74-2.3c.700136-.528587,1.349599-1.121138,1.94-1.77l2.13,1.94c-.696743.769318-1.463362,1.472331-2.29,2.1Zm-24.8-4.61c-.558937-.892838-1.031092-1.837148-1.41-2.82l2.69-1c.315127.815243.706882,1.598752,1.17,2.34Zm29,0l-2.45-1.52c.459931-.741486.848345-1.52501,1.16-2.34l2.69,1c-.354266.973093-.799573,1.910583-1.33,2.8Zm-31.31-5.81c-.19156-1.035724-.288626-2.086711-.29-3.14h2.95c.007928.872269.091575,1.742202.25,2.6Zm33.57,0l-2.83-.53c.160075-.857402.240418-1.727784.24-2.6l2.88-.07v.07c.027472,1.014017-.039484,2.028391-.2,3.03Zm-30.74-5.71l-2.84-.52c.193813-1.023227.478268-2.027184.85-3l2.7,1c-.291099.784069-.505436,1.594533-.64,2.42Zm27.9-.09c-.162297-.858136-.406756-1.698673-.73-2.51L192.1,79c.381991.970998.673234,1.975287.87,3Zm-26-4.78l-2.46-1.51c.554533-.896613,1.190559-1.740184,1.9-2.52l2.13,1.94c-.563959.620045-1.075701,1.285644-1.53,1.99Zm24.13-.07c-.466949-.739336-.999067-1.435441-1.59-2.08l2.12-2c.714702.770712,1.354265,1.607836,1.91,2.5ZM167.61,74l-1.74-2.3c.835194-.648469,1.729068-1.217602,2.67-1.7l1.29,2.57c-.779208.412857-1.521886.891249-2.22,1.43Zm17.1,0c-.697172-.527865-1.44402-.986691-2.23-1.37l1.28-2.59c.940998.468534,1.837945,1.020759,2.68,1.65Zm-12.44-2.29l-.8-2.77c1.012142-.293142,2.05034-.487385,3.1-.58l.27,2.87c-.866669.045981-1.727109.173206-2.57.38Zm7.77,0c-.843545-.236419-1.707274-.393765-2.58-.47l.25-2.87c1.048378.090772,2.086124.278236,3.1.56Z" transform="translate(-176.13-85.34)" fill="#e2eaf2"/></g><g transform="matrix(6.84 0 0 6.84 927.84 686.61)"><circle r="9.17" fill="#9068be"/></g><g transform="matrix(6.84 0 0 6.84 929.07 717.54)"><path d="M191.28,78.68c.041649.456714-.178483.897722-.568518,1.138959s-.88293.241236-1.272964,0-.610167-.682245-.568518-1.138959Z" transform="translate(-190.07-79.34)" fill="#6ed3cf"/></g><g transform="matrix(6.84 0 0 6.84 929.06 680.69)"><path d="M186.54,78h7.07l-.42-.94c-.12502-.321611-.12502-.678389,0-1c.142517-.435689.213438-.891607.21-1.35.067475-1.748397-1.108706-3.301291-2.81-3.71v-.72c-.063773-.22325-.26782-.377171-.5-.377171s-.436227.153921-.5.377171v.72c-1.704805.418922-2.874201,1.986499-2.79,3.74-.000212.458941.074087.914872.22,1.35.12502.321611.12502.678389,0,1Z" transform="translate(-190.07-73.95)" fill="#6ed3cf"/></g><g transform="matrix(6.84 0 0 6.84 556.99 792.15)"><path d="M174.12,79.75L136.24,45.54c-.848721-.777891-2.151279-.777891-3,0L95.39,79.75v50.12c.005451.793021.646979,1.434549,1.44,1.44h75.85c.793021-.005451,1.434549-.646979,1.44-1.44Z" transform="translate(-134.75-88.13)" fill="#9068be"/></g><g transform="matrix(6.84 0 0 6.84 550.38 705.92)"><polygon points="-35.03,4.04 0,-27.61 35.03,4.04 0,27.61 -35.03,4.04" fill="#0d1019"/></g><g transform="matrix(6.84 0 0 6.84 181.98 818.49)"><path d="M74.06,95c-.37,3,2.52,4.55,6.42,4.9s5,.06,6.14-2.45s1.68-5.59.7-8-3.49-1.17-4,1.44-1.39,2.19-1.39.66-1.26-3.08-3.21-2.1-2.24,2.83-.28,4.07.69,1.6-1.12.72-3.12-.34-3.26.76Z" transform="translate(-80.93-94.09)" fill="#0d1019"/></g><g transform="matrix(6.84 0 0 6.84 92.59 729.11)"><path d="M61,81.94c-.37,3,2.52,4.55,6.43,4.9s5,.06,6.13-2.45s1.68-5.59.7-8-3.49-1.17-4,1.44-1.39,2.19-1.39.66-1.26-3.08-3.21-2.1-2.24,2.83-.28,4.07.7,1.6-1.12.72-3.16-.38-3.26.76Z" transform="translate(-67.87-81.03)" fill="#0d1019"/></g><g transform="matrix(6.84 0 0 6.84 218.27 686.71)"><path d="M81.69,69.52c-2.44,1.15-2.24,4.06-.64,7.18s2.34,3.82,4.77,3.47s5-1.4,6.34-3.26-.78-3.19-3-2.37-2.32,0-1.16-.74s1.72-2.42.05-3.43-3.2-.33-3.2,1.73-.88,1.29-1.08-.5-1.15-2.52-2.08-2.08Z" transform="translate(-86.21-74.82)" fill="#0d1019"/></g><g transform="matrix(6.41 0 0 6.41 619.19 599.97)"><path d="M113.18,119.87c.15,7.31-3.51,30.16-3.51,30.16s3.51,7.16,16.76,6.4s15.57-6.43,15.57-6.43-1.22-13.1-1.37-17.52-.85-5.42.64-8s5.26-23.26,5.26-23.26l7.28-8.92c0,0,.87-3.57-1.92-3.88s-7.78,3.88-10.91,7.23c0,0-3,0,1.32-4c5.69-5.25,10.49-5.39,10.65-11.19.15-5.42-6.81-1.62-10.18.37-1.5.89-2.59-.48,0-2.51s1.13-.89,3.93-4.08s3-6.47.85-7.85-5.66,3.13-8.76,6c-2.43,2.28.09,1.13,3.1-4s4.14-6.33,3.31-9.87-3.15-5.21-6.91,1.13-17.92,24-23.41,29-1.7,31.22-1.7,31.22Z" transform="translate(-131.8-105.93)" fill="#eaa88e"/></g><g transform="matrix(6.17-1.76 1.76 6.17 600.92 461.35)"><rect width="36.85" height="67.19" rx="2.98" ry="2.98" transform="translate(-18.425-33.595)" fill="#9068be"/></g><g transform="matrix(6.41 0 0 6.41 605.58 459.2)"><path d="M135.36,46.59L106.08,55c-1.034936.287954-1.910551.98009-2.429695,1.920568s-.63818,2.050246-.330305,3.079432l17.21,60.13c.287954,1.034936.98009,1.910551,1.920568,2.429695s2.050246.63818,3.079432.330305l29.28-8.38c1.034936-.287954,1.910551-.98009,2.429695-1.920568s.63818-2.050246.330305-3.079432L140.34,49.36c-.286107-1.032203-.974243-1.906535-1.910305-2.427196s-2.041837-.644147-3.069695-.342804Zm20.17,62.18c.267698.936265.151252,1.940611-.323571,2.790787s-1.26887,1.476082-2.206429,1.739213l-26.61,7.62c-.933572.268434-1.935562.154728-2.785247-.316068s-1.477358-1.260062-1.744753-2.193932L105.49,61.18c-.268434-.933572-.154728-1.935562.316068-2.785247s1.260062-1.477358,2.193932-1.744753l3.29-.95l1.78,1.35c.887186.681217,2.04533.900225,3.12.59l12.52-3.58c1.078906-.30728,1.947527-1.109084,2.34-2.16l.79-2.08l2.78-.79c1.943504-.553096,3.968483.568913,4.53,2.51Z" transform="translate(-130.44-84.74)" fill="#0d1019"/></g><g transform="matrix(6.41 0 0 6.41 501.12 393.67)"><circle r="1.57" fill="#e2eaf2"/></g><g transform="matrix(6.41 0 0 6.41 475.46 304.07)"><circle r="1.75" fill="#fafafa"/></g><g transform="matrix(6.16-1.8 1.8 6.16 570.24 344.89)"><rect width="17.52" height="5.27" rx="2.63" ry="2.63" transform="translate(-8.76-2.635)" fill="#fafafa"/></g><g transform="matrix(6.41 0 0 6.41 539.76 375.74)"><polygon points="-1.46,-0.56 -1.13,1.39 1.47,-1.4 -1.46,-0.56" fill="#fafafa"/></g><g transform="matrix(6.41 0 0 6.41 567.08 356.54)"><path d="M120.63,70.2c-.203622.013678-.383357-.131939-.412219-.333969s.102912-.392147.302219-.436031l9.17-2.62c.1008-.030766.209761-.019427.302066.031435s.160097.136917.187934.238565c.057648.207066-.063106.421739-.27.48l-9.17,2.63Z" transform="translate(-125.2-68.5)" fill="#6ed3cf"/></g><g transform="matrix(6.41 0 0 6.41 549.16 561.46)"><circle r="1.57" fill="#fafafa"/></g><g transform="matrix(6.17-1.76 1.76 6.17 597.2 528.38)"><rect width="8.81" height="3.62" rx="1.81" ry="1.81" transform="translate(-4.405-1.81)" fill="#fafafa"/></g><g transform="matrix(6.41 0 0 6.41 587.74 543.47)"><polygon points="-1.47,-0.56 -1.14,1.39 1.47,-1.4 -1.47,-0.56" fill="#fafafa"/></g><g transform="matrix(6.41 0 0 6.41 591.93 533.19)"><path d="M127.41,96.93c-.175745-.005189-.328617-.121855-.38-.29-.030575-.099502-.018994-.20719.032039-.297915s.13705-.156544.237961-.182085l3.36-1c.1008-.030766.209761-.019427.302066.031435s.160097.136917.187934.238565c.05819.209576-.061747.42724-.27.49l-3.36,1Z" transform="translate(-129.09-96.04)" fill="#6ed3cf"/></g><g transform="matrix(6.41 0 0 6.41 668.01 591.43)"><path d="M138.45,108c-.986876-.003124-1.852073-.660184-2.12-1.61-.160548-.560918-.08846-1.162856.2-1.67.293761-.491818.767022-.850349,1.32-1l5-1.42c.931991-.265777,1.928126.109629,2.452897.924405s.454556,1.876984-.172897,2.615595l.39.95c.052866.139237.026069.296191-.07.41-.097434.116247-.254667.163416-.4.12l-1.93-.52-4.05,1.16c-.204104.039807-.412473.05325-.62.04Zm5-5c-.135546.00039-.270305.020604-.4.06l-5,1.42c-.359551.099635-.662914.341603-.84.67-.186047.32812-.232869.717103-.13,1.08.213894.75901.998486,1.204801,1.76,1L143,106c.071964-.020042.148036-.020042.22,0l1.25.34-.18-.45c-.057628-.153469-.018299-.326514.1-.44.435008-.389876.584565-1.007616.376055-1.553289s-.731902-.906271-1.316055-.906711Z" transform="translate(-140.95-105.11)" fill="#fafafa"/></g><g transform="matrix(6.41 0 0 6.41 673.78 591.38)"><path d="M140.18,106c-.203622.013678-.383357-.131939-.412219-.333969s.102912-.392147.302219-.436031l3.37-1c.207066-.057648.421739.063106.48.27.05819.209576-.061747.42724-.27.49l-3.36,1Z" transform="translate(-141.85-105.11)" fill="#fafafa"/></g><g transform="matrix(6.41 0 0 6.41 604.34 433.64)"><path d="M125.21,85.21c-1.578143.119048-2.977328-1.008307-3.196704-2.575655s.816521-3.035533,2.366704-3.354345l11.78-3.37c.272724-.080408.55567-.120829.84-.12c1.29529-.031004,2.464127.773057,2.89832,1.9938s.035623,2.5823-.98832,3.3762l.35.83c.052866.139237.026069.296191-.07.41-.100213.111951-.254711.158301-.4.12L136.86,82l-10.81,3.09c-.272724.080408-.55567.120829-.84.12ZM137,76.58c-.209152.001338-.417359.028204-.62.08L124.6,80c-1.186523.343531-1.871,1.582747-1.53,2.77.26918.958902,1.144034,1.621175,2.14,1.62.209152-.001338.417359-.028204.62-.08l10.92-3.13c.068531-.020282.141469-.020282.21,0l1.26.34-.15-.38c-.079993-.172493-.020182-.377558.14-.48.795079-.551118,1.146519-1.550389.871457-2.477871s-1.114469-1.573585-2.081457-1.602129Z" transform="translate(-131.03-80.5)" fill="#fafafa"/></g><g transform="matrix(6.41 0 0 6.41 569.71 449.32)"><path d="M125.5,83.38c-.172615.00154-.32458-.113461-.37-.28-.059054-.20666.055763-.423046.26-.49l.25-.07c.207107-.060751.424249.057893.485.265s-.057893.424249-.265.485l-.25.08Z" transform="translate(-125.63-82.95)" fill="#fafafa"/></g><g transform="matrix(6.41 0 0 6.41 583.3 445.44)"><path d="M127.62,82.77c-.203622.013678-.383357-.131939-.412219-.333969s.102912-.392147.302219-.436031l.25-.07c.209576-.05819.42724.061747.49.27.057648.207066-.063106.421739-.27.48l-.25.08Z" transform="translate(-127.73-82.34)" fill="#fafafa"/></g><g transform="matrix(6.41 0 0 6.41 597.2 441.52)"><path d="M129.8,82.16c-.203622.013678-.383357-.131939-.412219-.333969s.102912-.392147.302219-.436031l.25-.07c.207066-.057648.421739.063106.48.27.05819.209576-.061747.42724-.27.49l-.25.07Z" transform="translate(-129.91-81.73)" fill="#fafafa"/></g><g transform="matrix(6.41 0 0 6.41 611.38 437.48)"><path d="M132,81.53c-.17518.002615-.330604-.111908-.38-.28-.05819-.209576.061747-.42724.27-.49l.25-.07c.207066-.057648.421739.063106.48.27.05819.209576-.061747.42724-.27.49l-.25.07Z" transform="translate(-132.12-81.1)" fill="#fafafa"/></g><g transform="matrix(6.41 0 0 6.41 627.11 432.58)"><path d="M134.45,80.77c-.203622.013678-.383357-.131939-.412219-.333969s.102912-.392147.302219-.436031l.25-.07c.1008-.030766.209761-.019427.302066.031435s.160097.136917.187934.238565c.057648.207066-.063106.421739-.27.48l-.25.08Z" transform="translate(-134.56-80.34)" fill="#fafafa"/></g><g transform="matrix(6.41 0 0 6.41 610.2 266.14)"><path d="M133,54.58c-.144681-.104711-.32198-.154354-.5-.14-.08,0-.11.06-.13.12l-.06.08c0,.06-.25,0-.42-.08s-.32-.25-.29-.31c-.005595-.033099-.005595-.066901,0-.1.030368-.052598.030368-.117402,0-.17-.083688-.159764-.222146-.284021-.39-.35-.079886-.033899-.170114-.033899-.25,0-.042475.019539-.075027.055709-.09.1-.077803.229033-.024084.482277.14.66.175022.21062.393289.381141.64.5.230678.144211.490043.236353.76.27.108381.026692.221619.026692.33,0c.119147-.037624.223867-.110927.3-.21.021436-.037128.021436-.082872,0-.12.021602-.085289.007134-.175709-.04-.25Z" transform="translate(-131.95-54.39)" fill="#fafafa"/></g><g transform="matrix(6.17-1.76 1.76 6.17 629.18 260.31)"><rect width="2.09" height="1.87" rx="0.48" ry="0.48" transform="translate(-1.045-.935)" fill="#fafafa"/></g><g transform="matrix(6.41 0 0 6.41 639.47 256.67)"><polygon points="0.46,0.55 -0.28,0.5 -0.46,-0.11 0.15,-0.55 0.46,0.55" fill="#fafafa"/></g><g transform="matrix(6.41 0 0 6.41 648.45 254.74)"><circle r="0.4" fill="#fafafa"/></g><g transform="matrix(6.17-1.76 1.76 6.17 683.03 643.61)"><rect width="15.54" height="3.2" rx="1.35" ry="1.35" transform="translate(-7.77-1.6)" fill="#fafafa"/></g><g transform="matrix(6.41 0 0 6.41 719.39 633.18)"><circle r="0.88" fill="#6ed3cf"/></g><g transform="matrix(6.41 0 0 6.41 571.29 675.57)"><circle r="1.57" fill="#fafafa"/></g><g transform="matrix(6.17-1.76 1.76 6.17 571.18 675.61)"><rect width="1.98" height="0.49" rx="0" ry="0" transform="translate(-.99-.245)" fill="#6ed3cf"/></g><g transform="matrix(6.17-1.76 1.76 6.17 571.2 675.58)"><rect width="0.49" height="1.98" rx="0" ry="0" transform="translate(-.245-.99)" fill="#6ed3cf"/></g><g transform="matrix(6.17-1.76 1.76 6.17 597.88 668.29)"><rect width="4.01" height="3.05" rx="0" ry="0" transform="translate(-2.005-1.525)" fill="#fafafa"/></g><g transform="matrix(6.41 0 0 6.41 600.09 670.86)"><path d="M129,118.26l2.72-.78c-.278258-.491148-.805781-.78764-1.37-.77-.92.11-1.35,1.55-1.35,1.55Z" transform="translate(-130.36-117.48)" fill="#6ed3cf"/></g><g transform="matrix(6.41 0 0 6.41 591.94 665.96)"><circle r="0.33" fill="#6ed3cf"/></g><g transform="matrix(6.41 0 0 6.41 619.21 660.31)"><path d="M133,116.39l-.08-.3-.25.07-.06-.23.24-.07-.09-.3-.24.07v-.08c-.055421-.183027-.034667-.380672.057564-.548195s.248141-.290756.432436-.341805c.380971-.109511.7788.109519.89.49l.28,1c.102949.383256-.119128.778554-.5.89-.184337.052229-.381889.028833-.548928-.065008s-.289786-.25039-.341072-.434992v0Z" transform="translate(-133.35-115.85)" fill="#fafafa"/></g><g transform="matrix(6.41 0 0 6.41 622.31 670.67)"><path d="M134.18,117.12l-.45.13v0l-.45.13c-.180853.057646-.285874.245809-.24.43l.78-.22v0l.78-.22c-.05331-.180166-.236212-.289036-.42-.25Z" transform="translate(-133.81-117.46)" fill="#fafafa"/></g><g transform="matrix(6.17-1.76 1.76 6.17 621.38 668.23)"><rect width="0.31" height="0.69" rx="0" ry="0" transform="translate(-.155-.345)" fill="#fafafa"/></g><g transform="matrix(6.41 0 0 6.41 746.88 627.32)"><path d="M154.63,110c.06.38-.23,1-1.13,1.31-.597644.257499-1.293785.041017-1.64-.51.957455-.129924,1.890703-.399454,2.77-.8Z" transform="translate(-153.25-110.71)" fill="#fafafa"/></g><g transform="matrix(6.41 0 0 6.41 746.23 622.17)"><path d="M151.83,110.52c.08-.48.5-1.15,1.2-.82.42-.73,1.15-.32,1.45.06-.842645.378207-1.734988.634125-2.65.76Z" transform="translate(-153.16-109.91)" fill="#fafafa"/></g><g transform="matrix(6.41 0 0 6.41 523.79 545.33)"><path d="M114.85,71.28c-2.548408,5.100043-4.785832,10.349639-6.7,15.72-1.37,3.8.3,12.18,1.22,16.14s3.2,14.93,3.81,16.76s4.87,7.92,16.14,2.44l-3.35-2c0,0,.46-6.25-2.13-10.51s-5.36-8.69-5.36-8.69-1-8.07-1.65-10s.4-2.13,1.65-7.16-.43-11.64-3.63-12.7Z" transform="translate(-118.48-97.93)" fill="#eaa88e"/></g><g transform="matrix(6.41 0 0 6.41 669.81 306.5)"><path d="M137.24,66.4c2.14,1.81,4.27.92,6.71-2.13s2.43-6.4,1.52-7.92c-.721245-1.027092-1.725231-1.822638-2.89-2.29-1.412246,1.358875-2.642486,2.894994-3.66,4.57-1.52,2.59-3.66,6.1-1.68,7.77Z" transform="translate(-141.24-60.7)" fill="#eaa88e"/></g><g transform="matrix(6.41 0 0 6.41 681.62 379.55)"><path d="M137.34,75.59c-.208626.665138.043297,1.388403.62,1.78c2.2,1.47,5.3.24,7.7-2.16c2.74-2.74,3.47-3.48,3.16-6.07s-1.82-3.8-3.82-2.43c-2.150146,1.72261-4.126261,3.651834-5.9,5.76-.799898.904409-1.399665,1.967632-1.76,3.12Z" transform="translate(-143.08-72.07)" fill="#eaa88e"/></g><g transform="matrix(6.41 0 0 6.41 723.53 503.1)"><path d="M144.29,93.4c1,2.9,4.15,1.54,6.05.83s5.15-1.77,4.7-4.86-4-1.6-5.84-.9-5.91,1.89-4.91,4.93Z" transform="translate(-149.61-91.33)" fill="#eaa88e"/></g><g transform="matrix(6.41 0 0 6.41 705.06 440.92)"><path d="M140.33,83.63c.65,2.58,3.86,2.86,7.1,1.77s6.45-2.31,5.77-5.59-4.13-3-7.46-1.17-6.27,1.58-5.41,4.99Z" transform="translate(-146.74-81.65)" fill="#eaa88e"/></g><g transform="matrix(6.41 0 0 6.41 501.09 130.35)"><path d="M129.56,29.92c0-3.540145-2.869855-6.41-6.41-6.41h-16.43c-2.290072,0-4.406187,1.221739-5.551223,3.205s-1.145036,4.426739,0,6.41s3.261151,3.205,5.551223,3.205h13.48l6.8,6.58c.051504.04282.124228.049028.182245.015557s.089044-.099536.077755-.165557l-1.57-6.94c2.35553-1.013726,3.878529-3.335612,3.87-5.9Z" transform="translate(-114.94-33.23)" fill="#9068be"/></g><g transform="matrix(6.41 0 0 6.41 475.78 95.87)"><path d="M116.60749,28.85h-11.25445c-.552522,0-1.00304-.447715-1.00304-1s.450518-1,1.00304-1h11.25445c.552522,0,1.00304.447715,1.00304,1s-.450518,1-1.00304,1Z" transform="translate(-110.98-27.85)" fill="#fafafa"/></g><g transform="matrix(6.41 0 0 6.41 502.21 124.6)"><path d="M124.8025,33h-19.456193c-.373132,0-.666308-.299969-.666308-.67s.293176-.67.666308-.67h19.456193c.239871,0,.453089.127701.573025.335s.119935.462701,0,.67-.333154.335-.573025.335Z" transform="translate(-115.1-32.33)" fill="#fafafa"/></g><g transform="matrix(6.41 0 0 6.41 861.61 195.95)"><path d="M182.88,29.72h-23.56c-4.327821.010564-8.061789,3.039231-8.965141,7.271737s1.268746,8.521717,5.215141,10.298263L153.39,57c-.022617.069026.007474.144339.071429.178776s.143393.018102.188571-.038776l9.27-9h20c5.075497,0,9.19-4.114503,9.19-9.19s-4.114503-9.19-9.19-9.19Z" transform="translate(-171.13-43.46)" fill="#0a0d16"/></g><g transform="matrix(6.41 0 0 6.41 939.59 166.81)"><circle id="eZNC0E8x3Ub129" r="3.5" fill="#6ed3cf"/></g><g transform="matrix(6.41 0 0 6.41 783.2 166.81)"><circle id="eZNC0E8x3Ub131" r="3.5" fill="#fafafa"/></g><g transform="matrix(6.41 0 0 6.41 861.39 166.81)"><circle id="eZNC0E8x3Ub133" r="3.5" fill="#9068be"/></g><g transform="matrix(6.41 0 0 6.41 291.95 300.39)"><path d="M93.71,62.77c2.645171-1.650175,3.710311-4.970386,2.518766-7.851398s-4.290744-4.478913-7.328766-3.778602l-16,3.6c-3.443495.77596-5.60596,4.196505-4.83,7.64s4.196505,5.60596,7.64,4.83l13.22-3l7,4.25c.099366.063328.228898.051915.315659-.027812s.109061-.207834.054341-.312188Z" transform="translate(-82.31-59.74)" fill="#e2eaf2"/></g><g transform="matrix(6.41 0 0 6.41 344.93 284.83)"><circle id="eZNC0E8x3Ub137" r="2.44" fill="#6ed3cf"/></g><g transform="matrix(6.41 0 0 6.41 291.95 296.76)"><circle id="eZNC0E8x3Ub139" r="2.44" fill="#9068be"/></g><g transform="matrix(6.41 0 0 6.41 238.91 308.75)"><circle id="eZNC0E8x3Ub141" r="2.44" fill="#0d1019"/></g><g transform="matrix(2.53-.55 0.55 2.53 466.98 933.56)"><path d="M174.12,79.75L136.24,45.54c-.848721-.777891-2.151279-.777891-3,0L95.39,79.75v50.12c.005451.793021.646979,1.434549,1.44,1.44h75.85c.793021-.005451,1.434549-.646979,1.44-1.44Z" transform="translate(-134.75-88.13)" fill="#9068be"/></g><g transform="matrix(2.85 0.48-.48 2.85 660.11 931.44)"><path d="M174.12,79.75L136.24,45.54c-.848721-.777891-2.151279-.777891-3,0L95.39,79.75v50.12c.005451.793021.646979,1.434549,1.44,1.44h75.85c.793021-.005451,1.434549-.646979,1.44-1.44Z" transform="translate(-134.75-88.13)" fill="#9068be"/></g>

</svg>
