<?xml version="1.0" encoding="UTF-8" standalone="no" ?>
<!DOCTYPE svg PUBLIC "-//W3C//DTD SVG 1.1//EN" "http://www.w3.org/Graphics/SVG/1.1/DTD/svg11.dtd">
<svg xmlns="http://www.w3.org/2000/svg" xmlns:xlink="http://www.w3.org/1999/xlink" version="1.1" width="1080" height="1080" viewBox="0 0 1080 1080" xml:space="preserve">
<desc>Created with Fabric.js 5.2.4</desc>
<defs>
</defs>
<rect x="0" y="0" width="100%" height="100%" fill="transparent"></rect>
<g transform="matrix(1 0 0 1 540 540)" id="10544cfd-8e87-4f6c-9bee-e670611b3a88"  >
</g>
<g transform="matrix(1 0 0 1 540 540)" id="f15b7af8-b071-45c5-a84b-2d90ff91d022"  >
<rect style="stroke: none; stroke-width: 1; stroke-dasharray: none; stroke-linecap: butt; stroke-dashoffset: 0; stroke-linejoin: miter; stroke-miterlimit: 4; fill: rgb(255,255,255); fill-rule: nonzero; opacity: 1; visibility: hidden;" vector-effect="non-scaling-stroke"  x="-540" y="-540" rx="0" ry="0" width="1080" height="1080" />
</g>
<g transform="matrix(0 0 0 0 0 0)"  >
<g style=""   >
</g>
</g>
<g transform="matrix(0 0 0 0 0 0)"  >
<g style=""   >
</g>
</g>
<g transform="matrix(0 0 0 0 0 0)"  >
<g style=""   >
</g>
</g>
<g transform="matrix(0 0 0 0 0 0)"  >
<g style=""   >
</g>
</g>
<g transform="matrix(0 0 0 0 0 0)"  >
<g style=""   >
</g>
</g>
<g transform="matrix(0 0 0 0 0 0)"  >
<g style=""   >
</g>
</g>
<g transform="matrix(0 0 0 0 0 0)"  >
<g style=""   >
</g>
</g>
<g transform="matrix(0 0 0 0 0 0)"  >
<g style=""   >
</g>
</g>
<g transform="matrix(22.63 0 0 22.63 540 540)"  >
<path style="stroke: rgb(144,104,190); stroke-width: 0; stroke-dasharray: none; stroke-linecap: butt; stroke-dashoffset: 0; stroke-linejoin: miter; stroke-miterlimit: 4; fill: rgb(144,104,190); fill-rule: nonzero; opacity: 1;" vector-effect="non-scaling-stroke"  transform=" translate(-25, -25)" d="M 5 2 C 3.347656 2 2 3.347656 2 5 L 2 35 C 2 36.652344 3.347656 38 5 38 L 45 38 C 46.652344 38 48 36.652344 48 35 L 48 5 C 48 3.347656 46.652344 2 45 2 Z M 7 7 L 43 7 L 43 33 L 7 33 Z M 19.28125 11.28125 L 11.28125 19.28125 L 10.59375 20 L 11.28125 20.71875 L 19.28125 28.71875 L 20.71875 27.28125 L 13.4375 20 L 20.71875 12.71875 Z M 30.71875 11.28125 L 29.28125 12.71875 L 36.5625 20 L 29.28125 27.28125 L 30.71875 28.71875 L 38.71875 20.71875 L 39.40625 20 L 38.71875 19.28125 Z M 20 39 L 20 43 L 30 43 L 30 39 Z M 10 40 C 9.703125 40 9.410156 40.117188 9.21875 40.34375 L 4.21875 46.34375 C 3.96875 46.644531 3.929688 47.085938 4.09375 47.4375 C 4.257813 47.789063 4.613281 48 5 48 L 45 48 C 45.386719 48 45.742188 47.789063 45.90625 47.4375 C 46.070313 47.085938 46.027344 46.644531 45.78125 46.34375 L 40.78125 40.34375 C 40.589844 40.117188 40.296875 40 40 40 L 32 40 L 32 45 L 18 45 L 18 40 Z" stroke-linecap="round" />
</g>
<g transform="matrix(NaN NaN NaN NaN 0 0)"  >
<g style=""   >
</g>
</g>
<g transform="matrix(NaN NaN NaN NaN 0 0)"  >
<g style=""   >
</g>
</g>
<g transform="matrix(NaN NaN NaN NaN 0 0)"  >
<g style=""   >
</g>
</g>
<g transform="matrix(NaN NaN NaN NaN 0 0)"  >
<g style=""   >
</g>
</g>
<g transform="matrix(NaN NaN NaN NaN 0 0)"  >
<g style=""   >
</g>
</g>
<g transform="matrix(NaN NaN NaN NaN 0 0)"  >
<g style=""   >
</g>
</g>
<g transform="matrix(NaN NaN NaN NaN 0 0)"  >
<g style=""   >
</g>
</g>
<g transform="matrix(NaN NaN NaN NaN 0 0)"  >
<g style=""   >
</g>
</g>
<g transform="matrix(NaN NaN NaN NaN 0 0)"  >
<g style=""   >
</g>
</g>
<g transform="matrix(NaN NaN NaN NaN 0 0)"  >
<g style=""   >
</g>
</g>
</svg>